HIERARCHY
ROOT root
{
	OFFSET 0.000000 0.000000 0.000000
	CHANNELS 6 Xposition Yposition Zposition Zrotation Yrotation Xrotation
	JOINT lhip
	{
		OFFSET 0.058581 -0.082280 -0.017664
		CHANNELS 3 Zrotation Yrotation Xrotation
		JOINT lknee
		{
			OFFSET 0.043451 -0.386469 0.008037
			CHANNELS 3 Zrotation Yrotation Xrotation
			JOINT lankle
			{
				OFFSET -0.014790 -0.426874 -0.037428
				CHANNELS 3 Zrotation Yrotation Xrotation
				JOINT ltoe
				{
					OFFSET 0.041054 -0.060286 0.122042
					CHANNELS 3 Zrotation Yrotation Xrotation
					End Site
					{
						OFFSET 0.000000 0.000000 0.000000
					}
				}
			}
		}
	}
	JOINT rhip
	{
		OFFSET -0.060310 -0.090513 -0.013543
		CHANNELS 3 Zrotation Yrotation Xrotation
		JOINT rknee
		{
			OFFSET -0.043257 -0.383688 -0.004843
			CHANNELS 3 Zrotation Yrotation Xrotation
			JOINT rankle
			{
				OFFSET 0.019056 -0.420046 -0.034562
				CHANNELS 3 Zrotation Yrotation Xrotation
				JOINT rtoe
				{
					OFFSET -0.034840 -0.062106 0.130323
					CHANNELS 3 Zrotation Yrotation Xrotation
					End Site
					{
						OFFSET 0.000000 0.000000 0.000000
					}
				}
			}
		}
	}
	JOINT lowerback
	{
		OFFSET 0.004439 0.124404 -0.038385
		CHANNELS 3 Zrotation Yrotation Xrotation
		JOINT upperback
		{
			OFFSET 0.004488 0.137956 0.026820
			CHANNELS 3 Zrotation Yrotation Xrotation
			JOINT chest
			{
				OFFSET -0.002265 0.056032 0.002855
				CHANNELS 3 Zrotation Yrotation Xrotation
				JOINT lowerneck
				{
					OFFSET -0.013390 0.211636 -0.033468
					CHANNELS 3 Zrotation Yrotation Xrotation
					JOINT upperneck
					{
						OFFSET 0.010113 0.088937 0.050410
						CHANNELS 3 Zrotation Yrotation Xrotation
						End Site
						{
							OFFSET 0.000000 0.000000 0.000000
						}
					}
				}
				JOINT lclavicle
				{
					OFFSET 0.071702 0.114000 -0.018898
					CHANNELS 3 Zrotation Yrotation Xrotation
					JOINT lshoulder
					{
						OFFSET 0.122921 0.045205 -0.019046
						CHANNELS 3 Zrotation Yrotation Xrotation
						JOINT lelbow
						{
							OFFSET 0.255332 -0.015649 -0.022946
							CHANNELS 3 Zrotation Yrotation Xrotation
							JOINT lwrist
							{
								OFFSET 0.265709 0.012698 -0.007375
								CHANNELS 3 Zrotation Yrotation Xrotation
								End Site
								{
									OFFSET 0.000000 0.000000 0.000000
								}
							}
						}
					}
				}
				JOINT rclavicle
				{
					OFFSET -0.082954 0.112472 -0.023707
					CHANNELS 3 Zrotation Yrotation Xrotation
					JOINT rshoulder
					{
						OFFSET -0.113228 0.046853 -0.008472
						CHANNELS 3 Zrotation Yrotation Xrotation
						JOINT relbow
						{
							OFFSET -0.260127 -0.014369 -0.031269
							CHANNELS 3 Zrotation Yrotation Xrotation
							JOINT rwrist
							{
								OFFSET -0.269108 0.006794 -0.006027
								CHANNELS 3 Zrotation Yrotation Xrotation
								End Site
								{
									OFFSET 0.000000 0.000000 0.000000
								}
							}
						}
					}
				}
			}
		}
	}
}
MOTION
Frames: 11
Frame Time: 0.033333
0.257940 0.572585 1.005385 -43.908279 1.948731 90.475036 5.289652 -0.042083 -8.148577 -7.252210 -10.084658 -0.018708 1.748592 -0.320416 -0.196094 0.000000 -0.000000 0.000000 -8.412766 -10.357773 -4.291928 2.257785 -9.786240 17.412584 3.931124 -19.902608 -9.451170 0.000000 -0.000000 0.000000 -0.599359 3.022050 11.589597 -3.357983 -1.431031 -4.026782 -1.259462 -0.722412 -1.538509 12.766829 -16.119599 0.405778 8.094855 -2.966241 11.003455 -30.332788 -4.028431 -0.054427 -44.380862 -5.408830 -1.162546 16.242695 -22.367111 -1.483424 14.688587 -8.855595 -4.631632 4.935020 8.655989 -7.516065 -1.550538 13.946989 -17.105927 -99.475190 59.629819 -68.532425 -27.966699 30.169651 22.308800 
0.254893 0.577652 1.005648 -43.377288 2.061161 90.410984 5.811205 -0.111304 -8.457539 -7.239328 -10.205100 0.324241 1.416240 -0.637264 -0.343932 0.000000 -0.000000 0.000000 -8.007319 -10.276033 -4.333175 2.436385 -9.430757 17.801608 3.863340 -19.645772 -9.342865 0.000000 -0.000000 0.000000 -0.928264 3.258203 11.377020 -3.020781 -1.549949 -3.666579 -1.352673 -0.847039 -1.617065 13.561445 -15.566696 0.056064 7.995282 -3.682978 11.293061 -30.311759 -3.954465 -0.092971 -44.331340 -5.453970 -0.754715 16.856646 -22.495829 -1.993304 13.506725 -8.497422 -4.906103 5.517362 8.423915 -8.168007 -0.500877 16.023565 -19.673942 -91.775570 52.653716 -63.508211 -25.807145 24.774460 21.996796 
0.252051 0.582725 1.005948 -42.990708 2.151794 90.292775 6.226763 0.033425 -8.700516 -7.146789 -10.467039 0.701955 1.033054 -0.827023 -0.561693 0.000000 -0.000000 0.000000 -7.643687 -10.119771 -4.175877 2.482577 -9.066467 17.893907 3.777990 -19.065986 -9.270173 0.000000 -0.000000 0.000000 -1.270960 3.401499 11.253946 -2.676524 -1.712903 -3.435752 -1.362913 -0.976725 -1.707983 14.482833 -14.345563 -0.218274 7.226288 -4.805937 11.493611 -30.517166 -3.758787 -0.142767 -44.095962 -5.228222 -0.170038 17.410515 -22.927659 -1.970049 13.423737 -7.281983 -5.441863 6.706515 8.621527 -9.054401 -0.369416 19.383456 -23.046322 -85.873353 46.433851 -61.623999 -28.159775 18.413033 15.948141 
0.249302 0.587834 1.006000 -42.867936 2.130537 90.136805 6.521639 0.263877 -8.790925 -6.986606 -10.665595 0.923632 0.434219 -0.926126 -0.745322 0.000000 -0.000000 0.000000 -7.360334 -9.761141 -3.960936 2.494911 -8.686075 17.847296 3.825402 -18.247708 -9.211435 0.000000 -0.000000 0.000000 -1.661531 3.606483 11.056889 -2.354857 -1.788566 -3.145512 -1.364730 -1.014623 -1.736018 15.234009 -12.681716 -0.376085 6.247986 -5.937560 11.363493 -30.286665 -3.620417 -0.285353 -44.371783 -5.246236 0.882903 17.566684 -22.435584 -1.540781 15.178072 -6.188266 -7.390589 7.235736 8.709061 -10.081280 0.402096 23.424655 -25.384075 -83.176838 41.300362 -64.131672 -33.935503 9.221799 5.385694 
0.246341 0.593057 1.005860 -42.934964 2.055741 89.811991 6.803830 0.663578 -8.668479 -6.862338 -10.757007 1.127363 0.041740 -1.137108 -0.900621 0.000000 -0.000000 0.000000 -7.140590 -9.421842 -3.270994 2.712904 -8.610616 17.075316 3.723087 -17.778086 -9.302194 0.000000 -0.000000 0.000000 -1.893300 3.830187 11.115498 -2.237994 -1.842285 -3.152720 -1.310286 -0.972169 -1.779905 15.341584 -11.627375 -0.037099 5.444370 -6.438344 11.430163 -29.720583 -3.630885 -0.221603 -44.919008 -4.924671 1.642485 17.525775 -22.197668 -1.098116 16.172644 -5.024562 -8.550750 6.927878 8.901803 -10.492673 2.354966 26.300405 -25.858026 -83.931972 38.462963 -69.442236 -37.394273 1.408554 -4.307006 
0.243634 0.598622 1.005824 -43.144913 2.070459 89.562501 7.230023 0.791720 -8.445306 -6.671143 -10.658226 0.864538 -0.315452 -1.180823 -0.579778 0.000000 -0.000000 0.000000 -6.777316 -9.450657 -2.582628 2.894767 -8.850629 15.967041 3.422731 -17.499001 -9.477586 0.000000 -0.000000 0.000000 -1.849946 4.044121 11.107796 -2.178082 -1.782275 -3.099629 -1.152232 -0.959967 -1.739051 15.199459 -11.791024 -0.590467 5.194328 -6.889338 11.733206 -29.581151 -3.708072 -0.263054 -45.338874 -4.852483 1.493580 17.553331 -21.528191 -1.201677 15.620344 -5.049909 -8.175961 6.908935 9.212503 -10.270590 3.769062 26.903259 -24.815509 -85.680273 39.567724 -70.598778 -36.857421 1.935771 -4.612130 
0.240904 0.604632 1.005711 -43.462737 2.027887 89.325663 7.652324 0.622251 -8.245117 -6.517264 -10.305354 0.701948 -0.274933 -0.992140 -0.288746 0.000000 -0.000000 0.000000 -6.306071 -9.701374 -1.912956 2.823300 -8.944530 14.726336 2.981201 -17.189545 -9.686061 0.000000 -0.000000 0.000000 -1.694523 4.150522 11.427848 -2.260694 -1.778468 -3.519168 -1.050080 -0.770266 -1.747341 14.193208 -12.034435 -0.298077 5.630564 -6.341168 11.896694 -29.407223 -3.793428 -0.135805 -45.689291 -4.746867 0.709335 17.354221 -20.819384 -0.987952 15.045814 -5.765996 -7.797643 7.269317 9.416453 -9.503532 4.591212 25.405696 -22.503614 -88.403569 44.900554 -68.346578 -35.566635 8.995345 2.387049 
0.238678 0.610715 1.005550 -43.891601 2.026221 89.220663 8.042443 0.488223 -8.195558 -6.246515 -9.771585 0.521379 -0.295956 -0.803861 0.126796 0.000000 -0.000000 0.000000 -5.939632 -10.021595 -1.520036 2.948892 -8.864269 13.691162 2.597079 -16.744068 -9.684782 0.000000 -0.000000 0.000000 -1.236195 4.158036 11.409410 -2.440421 -1.685824 -3.524067 -1.051994 -0.527960 -1.802254 13.206037 -12.405740 -0.255685 6.034443 -5.699732 11.927911 -29.644866 -3.601486 -0.174152 -45.623947 -4.663335 -0.191007 17.166346 -20.867919 -1.139319 14.020615 -6.672401 -6.919106 7.787282 9.247041 -8.667890 4.061362 22.939486 -19.891868 -93.701520 52.448389 -67.926129 -32.573825 16.763180 9.678547 
0.236740 0.617573 1.005601 -44.278069 2.016350 89.184906 8.513293 0.256968 -8.287552 -6.076082 -9.346736 0.388266 -0.345613 -0.707070 0.500100 0.000000 -0.000000 0.000000 -5.575034 -10.117497 -1.311379 3.196325 -8.621566 12.813542 2.273164 -16.428165 -9.733714 0.000000 -0.000000 0.000000 -0.749176 4.167744 11.357578 -2.659644 -1.601276 -3.401996 -0.940585 -0.525973 -1.892792 12.129691 -12.727213 -0.442668 6.553636 -4.474170 11.825750 -30.236426 -3.626634 0.053704 -45.393758 -4.009995 -1.320156 17.439223 -22.006410 -2.561036 12.718533 -7.082902 -5.210681 7.986357 9.437735 -7.884624 2.800315 20.305047 -17.554628 -103.018911 59.926865 -72.381258 -27.044548 23.848337 17.739515 
0.234583 0.624672 1.005836 -44.487428 2.003389 89.099039 8.945326 0.157580 -8.406698 -5.862755 -9.111232 0.433122 -0.383149 -0.652503 0.787083 0.000000 -0.000000 0.000000 -5.197836 -10.177055 -1.002833 3.366877 -8.681664 11.977061 2.156040 -16.259093 -9.904797 0.000000 -0.000000 0.000000 -0.335118 4.022198 11.693322 -2.831423 -1.507513 -3.951015 -0.792011 -0.375333 -1.722680 11.237698 -13.329225 -0.401011 6.733764 -3.541800 11.803666 -30.261053 -3.576122 -0.102186 -45.713542 -4.138337 -1.872368 17.181195 -21.243029 -2.383342 13.279662 -8.373390 -4.852208 7.678740 9.475101 -7.271594 1.479179 18.160900 -15.303801 -114.976029 65.806134 -80.473919 -25.893093 30.685657 22.314311 
0.232319 0.631986 1.006252 -44.738610 1.897068 89.027996 9.328733 0.083114 -8.461864 -5.674945 -9.068255 0.382724 -0.491582 -0.483313 1.057497 0.000000 -0.000000 0.000000 -4.824023 -10.217704 -0.910094 3.514802 -8.407032 11.402244 1.856659 -16.230849 -9.907285 0.000000 -0.000000 0.000000 -0.075501 3.898992 11.842073 -2.963794 -1.326373 -4.131171 -0.692828 -0.384773 -1.560870 10.743329 -13.645194 -0.307493 6.680096 -3.251758 11.678026 -30.351278 -3.337075 -0.243978 -45.724384 -4.085853 -1.918548 16.545163 -21.170790 -1.831233 14.081323 -9.052274 -5.221734 7.220527 9.359810 -6.933312 0.023972 17.157835 -13.825123 -124.610855 69.203642 -88.064336 -27.664910 34.434270 23.204840 
